<svg width="20.000000" height="20.000000" viewBox="0 0 20 20" fill="none" xmlns="http://www.w3.org/2000/svg" xmlns:xlink="http://www.w3.org/1999/xlink">
	<desc>
			Created with Pixso.
	</desc>
	<defs>
		<clipPath id="clip1_298">
			<rect id="Component 10" width="20.000000" height="20.000000" fill="white" fill-opacity="0"/>
		</clipPath>
	</defs>
	<rect id="Component 10" width="20.000000" height="20.000000" fill="#FFFFFF" fill-opacity="0"/>
	<g clip-path="url(#clip1_298)">
		<path id="Vector" d="M5.83 17.5C5.37 17.5 4.98 17.33 4.65 17.01C4.32 16.68 4.16 16.29 4.16 15.83L4.16 5C3.93 5 3.73 4.92 3.57 4.76C3.41 4.6 3.33 4.4 3.33 4.16C3.33 3.93 3.41 3.73 3.57 3.57C3.73 3.41 3.93 3.33 4.16 3.33L7.5 3.33C7.5 3.09 7.57 2.89 7.73 2.73C7.89 2.57 8.09 2.5 8.33 2.5L11.66 2.5C11.9 2.5 12.1 2.57 12.26 2.73C12.42 2.89 12.5 3.09 12.5 3.33L15.83 3.33C16.06 3.33 16.26 3.41 16.42 3.57C16.58 3.73 16.66 3.93 16.66 4.16C16.66 4.4 16.58 4.6 16.42 4.76C16.26 4.92 16.06 5 15.83 5L15.83 15.83C15.83 16.29 15.67 16.68 15.34 17.01C15.01 17.33 14.62 17.5 14.16 17.5L5.83 17.5ZM14.16 5L5.83 5L5.83 15.83L14.16 15.83L14.16 5ZM8.33 14.16C8.56 14.16 8.76 14.08 8.92 13.92C9.08 13.76 9.16 13.56 9.16 13.33L9.16 7.5C9.16 7.26 9.08 7.06 8.92 6.9C8.76 6.74 8.56 6.66 8.33 6.66C8.09 6.66 7.89 6.74 7.73 6.9C7.57 7.06 7.5 7.26 7.5 7.5L7.5 13.33C7.5 13.56 7.57 13.76 7.73 13.92C7.89 14.08 8.09 14.16 8.33 14.16ZM11.66 14.16C11.9 14.16 12.1 14.08 12.26 13.92C12.42 13.76 12.5 13.56 12.5 13.33L12.5 7.5C12.5 7.26 12.42 7.06 12.26 6.9C12.1 6.74 11.9 6.66 11.66 6.66C11.43 6.66 11.23 6.74 11.07 6.9C10.91 7.06 10.83 7.26 10.83 7.5L10.83 13.33C10.83 13.56 10.91 13.76 11.07 13.92C11.23 14.08 11.43 14.16 11.66 14.16Z" fill="#FD6666" fill-opacity="1.000000" fill-rule="nonzero"/>
	</g>
</svg>
