<svg width="20.000000" height="20.000000" viewBox="0 0 20 20" fill="none" xmlns="http://www.w3.org/2000/svg" xmlns:xlink="http://www.w3.org/1999/xlink">
	<desc>
			Created with Pixso.
	</desc>
	<defs>
		<clipPath id="clip1_297">
			<rect id="Component 10" width="20.000000" height="20.000000" fill="white" fill-opacity="0"/>
		</clipPath>
	</defs>
	<rect id="Component 10" width="20.000000" height="20.000000" fill="#FFFFFF" fill-opacity="0"/>
	<g clip-path="url(#clip1_297)">
		<path id="Vector" d="M4.16 17.5C3.93 17.5 3.73 17.42 3.57 17.26C3.41 17.1 3.33 16.9 3.33 16.66C3.33 16.43 3.41 16.23 3.57 16.07C3.73 15.91 3.93 15.83 4.16 15.83L15.83 15.83C16.06 15.83 16.26 15.91 16.42 16.07C16.58 16.23 16.66 16.43 16.66 16.66C16.66 16.9 16.58 17.1 16.42 17.26C16.26 17.42 16.06 17.5 15.83 17.5L4.16 17.5ZM10 13.81C9.88 13.81 9.78 13.79 9.68 13.76C9.59 13.72 9.5 13.66 9.41 13.58L6.41 10.58C6.26 10.43 6.18 10.23 6.18 10C6.18 9.76 6.26 9.56 6.41 9.41C6.56 9.26 6.76 9.18 7 9.18C7.23 9.18 7.43 9.26 7.58 9.41L9.16 11L9.16 3.33C9.16 3.09 9.24 2.89 9.4 2.73C9.56 2.57 9.76 2.5 10 2.5C10.23 2.5 10.43 2.57 10.59 2.73C10.75 2.89 10.83 3.09 10.83 3.33L10.83 11L12.41 9.41C12.56 9.26 12.76 9.18 13 9.18C13.23 9.18 13.43 9.26 13.58 9.41C13.73 9.56 13.81 9.76 13.81 10C13.81 10.23 13.73 10.43 13.58 10.58L10.58 13.58C10.5 13.66 10.4 13.72 10.31 13.76C10.21 13.79 10.11 13.81 10 13.81Z" fill="#313131" fill-opacity="1.000000" fill-rule="nonzero"/>
	</g>
</svg>
