<svg width="49.000000" height="49.000000" viewBox="0 0 49 49" fill="none" xmlns="http://www.w3.org/2000/svg" xmlns:xlink="http://www.w3.org/1999/xlink">
	<desc>
			Created with Pixso.
	</desc>
	<defs>
		<clipPath id="clip2_58">
			<rect id="ic_person_48px" width="49.000000" height="49.000000" fill="white" fill-opacity="0"/>
		</clipPath>
	</defs>
	<mask id="mask2_55" mask-type="alpha" maskUnits="userSpaceOnUse" x="4.000000" y="0.000000" width="40.000000" height="40.000000">
		<circle id="Ellipse 1" cx="24.000000" cy="20.000000" r="20.000000" fill="#D9D9D9" fill-opacity="1.000000"/>
	</mask>
	<g mask="url(#mask2_55)">
		<rect id="Avatar" width="40.000000" height="40.000000" transform="translate(4.000000 0.000000)" fill="#D9D9D9" fill-opacity="1.000000"/>
		<rect id="ic_person_48px" width="49.000000" height="49.000000" fill="#FFFFFF" fill-opacity="0"/>
		<g clip-path="url(#clip2_58)">
			<path id="Vector" d="M24.5 24.5C29.01 24.5 32.66 20.83 32.66 16.33C32.66 11.82 29.01 8.16 24.5 8.16C19.98 8.16 16.33 11.82 16.33 16.33C16.33 20.83 19.98 24.5 24.5 24.5ZM24.5 28.58C19.05 28.58 8.16 31.3 8.16 36.75L8.16 40.83L40.83 40.83L40.83 36.75C40.83 31.3 29.94 28.58 24.5 28.58Z" fill="#BABABA" fill-opacity="1.000000" fill-rule="nonzero"/>
		</g>
	</g>
</svg>
