<svg width="20.000000" height="20.000000" viewBox="0 0 20 20" fill="none" xmlns="http://www.w3.org/2000/svg" xmlns:xlink="http://www.w3.org/1999/xlink">
	<desc>
			Created with Pixso.
	</desc>
	<defs>
		<clipPath id="clip10_151">
			<rect id="Component 10" width="20.000000" height="20.000000" fill="white" fill-opacity="0"/>
		</clipPath>
	</defs>
	<rect id="Component 10" width="20.000000" height="20.000000" fill="#FFFFFF" fill-opacity="0"/>
	<g clip-path="url(#clip10_151)">
		<path id="Vector" d="M7.5 15L12.5 15C12.73 15 12.93 14.92 13.09 14.76C13.25 14.6 13.33 14.4 13.33 14.16C13.33 13.93 13.25 13.73 13.09 13.57C12.93 13.41 12.73 13.33 12.5 13.33L7.5 13.33C7.26 13.33 7.06 13.41 6.9 13.57C6.74 13.73 6.66 13.93 6.66 14.16C6.66 14.4 6.74 14.6 6.9 14.76C7.06 14.92 7.26 15 7.5 15ZM7.5 11.66L12.5 11.66C12.73 11.66 12.93 11.58 13.09 11.42C13.25 11.26 13.33 11.06 13.33 10.83C13.33 10.59 13.25 10.39 13.09 10.23C12.93 10.07 12.73 10 12.5 10L7.5 10C7.26 10 7.06 10.07 6.9 10.23C6.74 10.39 6.66 10.59 6.66 10.83C6.66 11.06 6.74 11.26 6.9 11.42C7.06 11.58 7.26 11.66 7.5 11.66ZM5 18.33C4.54 18.33 4.14 18.17 3.82 17.84C3.49 17.51 3.33 17.12 3.33 16.66L3.33 3.33C3.33 2.87 3.49 2.48 3.82 2.15C4.14 1.82 4.54 1.66 5 1.66L10.97 1.66C11.2 1.66 11.41 1.7 11.61 1.79C11.81 1.87 11.99 1.99 12.14 2.14L16.18 6.18C16.34 6.34 16.45 6.51 16.54 6.71C16.62 6.92 16.66 7.13 16.66 7.35L16.66 16.66C16.66 17.12 16.5 17.51 16.17 17.84C15.85 18.17 15.45 18.33 15 18.33L5 18.33ZM10.83 6.66L10.83 3.33L5 3.33L5 16.66L15 16.66L15 7.5L11.66 7.5C11.43 7.5 11.23 7.42 11.07 7.26C10.91 7.1 10.83 6.9 10.83 6.66Z" fill="#FFFFFF" fill-opacity="1.000000" fill-rule="nonzero"/>
	</g>
</svg>
