<svg width="20.000000" height="20.000000" viewBox="0 0 20 20" fill="none" xmlns="http://www.w3.org/2000/svg" xmlns:xlink="http://www.w3.org/1999/xlink">
	<desc>
			Created with Pixso.
	</desc>
	<defs>
		<clipPath id="clip10_121">
			<rect id="Property 1=icon\email" width="20.000000" height="20.000000" fill="white" fill-opacity="0"/>
		</clipPath>
	</defs>
	<rect id="Property 1=icon\email" width="20.000000" height="20.000000" fill="#FFFFFF" fill-opacity="0"/>
	<g clip-path="url(#clip10_121)">
		<path id="Vector" d="M5.83 14.16C5.37 14.16 4.98 14 4.65 13.67C4.32 13.35 4.16 12.95 4.16 12.5L4.16 4.16C4.16 3.7 4.32 3.31 4.65 2.98C4.98 2.66 5.37 2.5 5.83 2.5L17.5 2.5C17.95 2.5 18.35 2.66 18.67 2.98C19 3.31 19.16 3.7 19.16 4.16L19.16 12.5C19.16 12.95 19 13.35 18.67 13.67C18.35 14 17.95 14.16 17.5 14.16L5.83 14.16ZM11.18 9.91L5.83 6.18L5.83 12.5L17.5 12.5L17.5 6.18L12.14 9.91C11.99 10.02 11.83 10.08 11.66 10.08C11.5 10.08 11.34 10.02 11.18 9.91ZM11.66 8.2L17.5 4.16L5.83 4.16L11.66 8.2ZM2.5 17.5C2.04 17.5 1.64 17.33 1.32 17.01C0.99 16.68 0.83 16.29 0.83 15.83L0.83 6.25C0.83 6.01 0.91 5.81 1.07 5.65C1.23 5.49 1.43 5.41 1.66 5.41C1.9 5.41 2.1 5.49 2.26 5.65C2.42 5.81 2.5 6.01 2.5 6.25L2.5 15.83L15.41 15.83C15.65 15.83 15.85 15.91 16.01 16.07C16.17 16.23 16.25 16.43 16.25 16.66C16.25 16.9 16.17 17.1 16.01 17.26C15.85 17.42 15.65 17.5 15.41 17.5L2.5 17.5Z" fill="#A6A8A9" fill-opacity="1.000000" fill-rule="nonzero"/>
	</g>
</svg>
