<svg width="20.000000" height="20.000000" viewBox="0 0 20 20" fill="none" xmlns="http://www.w3.org/2000/svg" xmlns:xlink="http://www.w3.org/1999/xlink">
	<desc>
			Created with Pixso.
	</desc>
	<defs>
		<clipPath id="clip3_136">
			<rect id="Component 11" width="20.000000" height="20.000000" fill="white" fill-opacity="0"/>
		</clipPath>
	</defs>
	<rect id="Component 11" width="20.000000" height="20.000000" fill="#FFFFFF" fill-opacity="0"/>
	<g clip-path="url(#clip3_136)">
		<path id="Vector" d="M3.33 17.5C2.87 17.5 2.48 17.33 2.15 17.01C1.82 16.68 1.66 16.29 1.66 15.83L1.66 4.16C1.66 3.7 1.82 3.31 2.15 2.98C2.48 2.66 2.87 2.5 3.33 2.5L8.33 2.5C8.79 2.5 9.18 2.66 9.51 2.98C9.83 3.31 10 3.7 10 4.16L10 5.83L16.66 5.83C17.12 5.83 17.51 5.99 17.84 6.32C18.17 6.64 18.33 7.04 18.33 7.5L18.33 15.83C18.33 16.29 18.17 16.68 17.84 17.01C17.51 17.33 17.12 17.5 16.66 17.5L3.33 17.5ZM3.33 15.83L8.33 15.83L8.33 14.16L3.33 14.16L3.33 15.83ZM3.33 12.5L8.33 12.5L8.33 10.83L3.33 10.83L3.33 12.5ZM3.33 9.16L8.33 9.16L8.33 7.5L3.33 7.5L3.33 9.16ZM3.33 5.83L8.33 5.83L8.33 4.16L3.33 4.16L3.33 5.83ZM10 15.83L16.66 15.83L16.66 7.5L10 7.5L10 15.83ZM12.5 10.83C12.26 10.83 12.06 10.75 11.9 10.59C11.74 10.43 11.66 10.23 11.66 10C11.66 9.76 11.74 9.56 11.9 9.4C12.06 9.24 12.26 9.16 12.5 9.16L14.16 9.16C14.4 9.16 14.6 9.24 14.76 9.4C14.92 9.56 15 9.76 15 10C15 10.23 14.92 10.43 14.76 10.59C14.6 10.75 14.4 10.83 14.16 10.83L12.5 10.83ZM12.5 14.16C12.26 14.16 12.06 14.08 11.9 13.92C11.74 13.76 11.66 13.56 11.66 13.33C11.66 13.09 11.74 12.89 11.9 12.73C12.06 12.57 12.26 12.5 12.5 12.5L14.16 12.5C14.4 12.5 14.6 12.57 14.76 12.73C14.92 12.89 15 13.09 15 13.33C15 13.56 14.92 13.76 14.76 13.92C14.6 14.08 14.4 14.16 14.16 14.16L12.5 14.16Z" fill="#A6A8A9" fill-opacity="1.000000" fill-rule="nonzero"/>
	</g>
</svg>
