<svg width="20.000000" height="20.000000" viewBox="0 0 20 20" fill="none" xmlns="http://www.w3.org/2000/svg" xmlns:xlink="http://www.w3.org/1999/xlink">
	<desc>
			Created with Pixso.
	</desc>
	<defs>
		<clipPath id="clip10_140">
			<rect id="Component 11" width="20.000000" height="20.000000" fill="white" fill-opacity="0"/>
		</clipPath>
	</defs>
	<g clip-path="url(#clip10_140)">
		<path id="coolicon" d="M11.51 18.33L8.48 18.33C8.09 18.33 7.75 18.06 7.66 17.67L7.32 16.1C6.87 15.91 6.44 15.66 6.05 15.36L4.52 15.85C4.14 15.97 3.74 15.81 3.54 15.47L2.02 12.85C1.83 12.51 1.89 12.08 2.18 11.82L3.37 10.73C3.31 10.24 3.31 9.75 3.37 9.26L2.18 8.17C1.89 7.91 1.83 7.48 2.02 7.14L3.54 4.51C3.73 4.17 4.14 4.02 4.51 4.14L6.04 4.62C6.25 4.47 6.46 4.33 6.68 4.21C6.89 4.09 7.1 3.98 7.32 3.89L7.67 2.32C7.75 1.93 8.09 1.66 8.48 1.66L11.51 1.66C11.9 1.66 12.24 1.93 12.33 2.32L12.67 3.89C12.9 3.99 13.13 4.11 13.35 4.23C13.56 4.35 13.76 4.48 13.95 4.63L15.48 4.14C15.85 4.02 16.26 4.18 16.45 4.52L17.97 7.14C18.16 7.48 18.1 7.91 17.81 8.18L16.62 9.26C16.67 9.75 16.67 10.25 16.62 10.74L17.81 11.82C18.1 12.08 18.16 12.51 17.97 12.85L16.45 15.48C16.26 15.82 15.85 15.98 15.48 15.86L13.95 15.37C13.75 15.51 13.55 15.64 13.34 15.77C13.12 15.89 12.9 16.01 12.67 16.11L12.33 17.67C12.24 18.06 11.9 18.33 11.51 18.33ZM6.34 13.52L7.03 14.02C7.18 14.13 7.34 14.24 7.51 14.33C7.67 14.42 7.83 14.5 7.99 14.58L8.77 14.92L9.15 16.66L10.84 16.66L11.22 14.92L12 14.58C12.34 14.43 12.66 14.24 12.96 14.02L13.65 13.52L15.35 14.06L16.19 12.6L14.87 11.4L14.97 10.55C15.01 10.18 15.01 9.81 14.97 9.44L14.87 8.6L16.19 7.39L15.35 5.93L13.65 6.47L12.96 5.97C12.66 5.75 12.34 5.56 12 5.41L11.22 5.07L10.84 3.33L9.15 3.33L8.77 5.07L7.99 5.41C7.83 5.48 7.67 5.57 7.51 5.66C7.34 5.75 7.18 5.85 7.03 5.97L6.35 6.47L4.65 5.92L3.8 7.39L5.12 8.6L5.03 9.44C4.98 9.81 4.98 10.18 5.03 10.55L5.12 11.39L3.8 12.6L4.65 14.06L6.34 13.52ZM9.99 13.33C8.15 13.33 6.66 11.84 6.66 9.99C6.66 8.15 8.15 6.66 9.99 6.66C11.83 6.66 13.33 8.15 13.33 9.99C13.32 11.84 11.83 13.33 9.99 13.33ZM9.99 8.33C9.08 8.33 8.34 9.06 8.33 9.97C8.31 10.88 9.03 11.63 9.94 11.66C10.85 11.69 11.62 10.98 11.66 10.07L11.66 10.4L11.66 9.99C11.66 9.07 10.91 8.33 9.99 8.33Z" fill="#A6A8A9" fill-opacity="1.000000" fill-rule="nonzero"/>
	</g>
</svg>
