<svg width="20.000000" height="20.000000" viewBox="0 0 20 20" fill="none" xmlns="http://www.w3.org/2000/svg" xmlns:xlink="http://www.w3.org/1999/xlink">
	<desc>
			Created with Pixso.
	</desc>
	<defs>
		<clipPath id="clip10_107">
			<rect id="Property 1=icon\group" width="20.000000" height="20.000000" fill="white" fill-opacity="0"/>
		</clipPath>
	</defs>
	<rect id="Property 1=icon\group" width="20.000000" height="20.000000" fill="#FFFFFF" fill-opacity="0"/>
	<g clip-path="url(#clip10_107)">
		<path id="Vector" d="M0.83 14.33C0.83 13.86 0.95 13.42 1.19 13.03C1.44 12.63 1.76 12.33 2.16 12.12C3.02 11.69 3.9 11.37 4.79 11.15C5.68 10.94 6.58 10.83 7.5 10.83C8.41 10.83 9.31 10.94 10.2 11.15C11.09 11.37 11.97 11.69 12.83 12.12C13.23 12.33 13.55 12.63 13.8 13.03C14.04 13.42 14.16 13.86 14.16 14.33L14.16 15C14.16 15.45 14 15.85 13.67 16.17C13.35 16.5 12.95 16.66 12.5 16.66L2.5 16.66C2.04 16.66 1.64 16.5 1.32 16.17C0.99 15.85 0.83 15.45 0.83 15L0.83 14.33ZM17.5 16.66L15.37 16.66C15.52 16.41 15.64 16.14 15.71 15.86C15.79 15.57 15.83 15.29 15.83 15L15.83 14.16C15.83 13.55 15.66 12.96 15.32 12.4C14.98 11.84 14.5 11.36 13.87 10.95C14.58 11.04 15.25 11.18 15.87 11.38C16.5 11.58 17.08 11.83 17.62 12.12C18.12 12.4 18.5 12.71 18.77 13.05C19.03 13.39 19.16 13.76 19.16 14.16L19.16 15C19.16 15.45 19 15.85 18.67 16.17C18.35 16.5 17.95 16.66 17.5 16.66ZM7.5 9.99C6.58 9.99 5.79 9.67 5.14 9.02C4.49 8.36 4.16 7.58 4.16 6.66C4.16 5.74 4.49 4.96 5.14 4.31C5.79 3.65 6.58 3.33 7.5 3.33C8.41 3.33 9.2 3.65 9.85 4.31C10.5 4.96 10.83 5.74 10.83 6.66C10.83 7.58 10.5 8.36 9.85 9.02C9.2 9.67 8.41 9.99 7.5 9.99ZM15.83 6.66C15.83 7.58 15.5 8.36 14.85 9.02C14.2 9.67 13.41 9.99 12.5 9.99C12.34 9.99 12.15 9.98 11.91 9.94C11.68 9.91 11.48 9.87 11.33 9.83C11.7 9.38 11.99 8.89 12.19 8.35C12.39 7.81 12.5 7.24 12.5 6.66C12.5 6.08 12.39 5.52 12.19 4.97C11.99 4.43 11.7 3.94 11.33 3.49C11.52 3.43 11.72 3.38 11.91 3.36C12.11 3.34 12.3 3.33 12.5 3.33C13.41 3.33 14.2 3.65 14.85 4.31C15.5 4.96 15.83 5.74 15.83 6.66ZM2.5 15L12.5 15L12.5 14.33C12.5 14.18 12.46 14.04 12.38 13.91C12.3 13.79 12.2 13.69 12.08 13.62C11.33 13.25 10.57 12.96 9.81 12.78C9.04 12.59 8.27 12.5 7.5 12.5C6.72 12.5 5.95 12.59 5.18 12.78C4.42 12.96 3.66 13.25 2.91 13.62C2.79 13.69 2.69 13.79 2.61 13.91C2.53 14.04 2.5 14.18 2.5 14.33L2.5 15ZM7.5 8.33C7.95 8.33 8.35 8.17 8.67 7.84C9 7.51 9.16 7.12 9.16 6.66C9.16 6.2 9 5.81 8.67 5.48C8.35 5.16 7.95 4.99 7.5 4.99C7.04 4.99 6.64 5.16 6.32 5.48C5.99 5.81 5.83 6.2 5.83 6.66C5.83 7.12 5.99 7.51 6.32 7.84C6.64 8.17 7.04 8.33 7.5 8.33Z" fill="#A6A8A9" fill-opacity="1.000000" fill-rule="nonzero"/>
	</g>
</svg>
